<?xml version="1.0" standalone="no"?>
<svg xmlns:xlink="http://www.w3.org/1999/xlink" id="wave" style="transform:rotate(0deg); transition: 0.3s" viewBox="0 0 1440 490" version="1.1" xmlns="http://www.w3.org/2000/svg"><defs><linearGradient id="sw-gradient-0" x1="0" x2="0" y1="1" y2="0"><stop stop-color="rgba(243, 106, 62, 0.21)" offset="0%"/><stop stop-color="rgba(255, 179, 11, 0.3)" offset="100%"/></linearGradient></defs><path style="transform:translate(0, 0px); opacity:1" fill="url(#sw-gradient-0)" d="M0,196L80,204.2C160,212,320,229,480,269.5C640,310,800,376,960,375.7C1120,376,1280,310,1440,302.2C1600,294,1760,343,1920,359.3C2080,376,2240,359,2400,318.5C2560,278,2720,212,2880,187.8C3040,163,3200,180,3360,171.5C3520,163,3680,131,3840,147C4000,163,4160,229,4320,212.3C4480,196,4640,98,4800,106.2C4960,114,5120,229,5280,261.3C5440,294,5600,245,5760,187.8C5920,131,6080,65,6240,57.2C6400,49,6560,98,6720,171.5C6880,245,7040,343,7200,343C7360,343,7520,245,7680,179.7C7840,114,8000,82,8160,114.3C8320,147,8480,245,8640,310.3C8800,376,8960,408,9120,351.2C9280,294,9440,147,9600,122.5C9760,98,9920,196,10080,220.5C10240,245,10400,196,10560,171.5C10720,147,10880,147,11040,130.7C11200,114,11360,82,11440,65.3L11520,49L11520,490L11440,490C11360,490,11200,490,11040,490C10880,490,10720,490,10560,490C10400,490,10240,490,10080,490C9920,490,9760,490,9600,490C9440,490,9280,490,9120,490C8960,490,8800,490,8640,490C8480,490,8320,490,8160,490C8000,490,7840,490,7680,490C7520,490,7360,490,7200,490C7040,490,6880,490,6720,490C6560,490,6400,490,6240,490C6080,490,5920,490,5760,490C5600,490,5440,490,5280,490C5120,490,4960,490,4800,490C4640,490,4480,490,4320,490C4160,490,4000,490,3840,490C3680,490,3520,490,3360,490C3200,490,3040,490,2880,490C2720,490,2560,490,2400,490C2240,490,2080,490,1920,490C1760,490,1600,490,1440,490C1280,490,1120,490,960,490C800,490,640,490,480,490C320,490,160,490,80,490L0,490Z"/><defs><linearGradient id="sw-gradient-1" x1="0" x2="0" y1="1" y2="0"><stop stop-color="rgba(243, 106, 62, 0.14)" offset="0%"/><stop stop-color="rgba(255, 179, 11, 0.22)" offset="100%"/></linearGradient></defs><path style="transform:translate(0, 50px); opacity:0.9" fill="url(#sw-gradient-1)" d="M0,343L80,310.3C160,278,320,212,480,163.3C640,114,800,82,960,114.3C1120,147,1280,245,1440,310.3C1600,376,1760,408,1920,424.7C2080,441,2240,441,2400,432.8C2560,425,2720,408,2880,351.2C3040,294,3200,196,3360,147C3520,98,3680,98,3840,98C4000,98,4160,98,4320,122.5C4480,147,4640,196,4800,228.7C4960,261,5120,278,5280,253.2C5440,229,5600,163,5760,171.5C5920,180,6080,261,6240,285.8C6400,310,6560,278,6720,220.5C6880,163,7040,82,7200,65.3C7360,49,7520,98,7680,147C7840,196,8000,245,8160,220.5C8320,196,8480,98,8640,81.7C8800,65,8960,131,9120,196C9280,261,9440,327,9600,351.2C9760,376,9920,359,10080,326.7C10240,294,10400,245,10560,228.7C10720,212,10880,229,11040,212.3C11200,196,11360,147,11440,122.5L11520,98L11520,490L11440,490C11360,490,11200,490,11040,490C10880,490,10720,490,10560,490C10400,490,10240,490,10080,490C9920,490,9760,490,9600,490C9440,490,9280,490,9120,490C8960,490,8800,490,8640,490C8480,490,8320,490,8160,490C8000,490,7840,490,7680,490C7520,490,7360,490,7200,490C7040,490,6880,490,6720,490C6560,490,6400,490,6240,490C6080,490,5920,490,5760,490C5600,490,5440,490,5280,490C5120,490,4960,490,4800,490C4640,490,4480,490,4320,490C4160,490,4000,490,3840,490C3680,490,3520,490,3360,490C3200,490,3040,490,2880,490C2720,490,2560,490,2400,490C2240,490,2080,490,1920,490C1760,490,1600,490,1440,490C1280,490,1120,490,960,490C800,490,640,490,480,490C320,490,160,490,80,490L0,490Z"/></svg>